<?xml version="1.0" encoding="UTF-8"?>
<svg version="1.1" xmlns="http://www.w3.org/2000/svg" width="512" height="512">
<path d="M0 0 C0.74518781 -0.00465992 1.49037562 -0.00931984 2.25814489 -0.01412097 C4.75118587 -0.02605666 7.24368043 -0.01668124 9.73672581 -0.00736332 C11.54373158 -0.01153686 13.35073473 -0.01701449 15.15773302 -0.02368313 C20.1204142 -0.03815372 25.08292953 -0.03388795 30.04561985 -0.02651632 C35.39881733 -0.02179098 40.7519786 -0.03428886 46.10516453 -0.04453373 C56.59122539 -0.06173928 67.07722637 -0.06255812 77.56329768 -0.05732083 C86.0851896 -0.05328129 94.60706381 -0.05472011 103.12895489 -0.06006908 C104.3413049 -0.06081751 105.55365491 -0.06156593 106.8027428 -0.06233703 C109.26553221 -0.06386849 111.72832163 -0.06540683 114.19111104 -0.066952 C137.29209302 -0.08068331 160.39304116 -0.07523483 183.49402238 -0.06376678 C204.63374801 -0.05383294 225.77338613 -0.0667766 246.91309827 -0.09070098 C268.61412577 -0.11507578 290.31511248 -0.12470388 312.0161534 -0.11804825 C324.20176333 -0.11455254 336.38730594 -0.11681138 348.57290554 -0.13429928 C358.94582713 -0.14900097 369.318634 -0.14968325 379.69155329 -0.13222837 C384.98468638 -0.12369943 390.27761434 -0.12161509 395.57073689 -0.13687992 C400.41603488 -0.1506804 405.2609511 -0.14602367 410.10622675 -0.12664068 C411.85917538 -0.12286611 413.61215426 -0.12584445 415.36507606 -0.13625234 C433.15674985 -0.23437912 433.15674985 -0.23437912 440.59794712 6.41547298 C441.14579868 7.08449642 441.69365025 7.75351986 442.25810337 8.44281673 C442.82400181 9.1144183 443.38990025 9.78601986 443.97294712 10.47797298 C447.62511703 15.63335486 446.81259938 22.36227865 446.32060337 28.38031673 C444.78311956 34.45190884 441.23202541 37.72294267 436.22294712 41.25141048 C432.25615462 43.60542082 428.5586249 43.52404294 424.09937 43.51453781 C423.35512122 43.51689004 422.61087245 43.51924227 421.84407067 43.52166578 C419.33031336 43.52836492 416.81660764 43.52789728 414.30284214 43.52748775 C412.49032886 43.5307858 410.67781631 43.53451124 408.86530471 43.53862923 C403.86890347 43.54866394 398.87251425 43.55236838 393.87610435 43.55501854 C388.49355462 43.5589172 383.11101445 43.56849578 377.7284708 43.57723141 C364.72253189 43.59700739 351.71659218 43.60706309 338.71064198 43.6159592 C332.58991356 43.62033991 326.46918602 43.62570725 320.34845829 43.63094807 C300.00906269 43.64796085 279.66966763 43.66245612 259.330266 43.66969681 C254.05035241 43.67160678 248.77043882 43.6735271 243.49052525 43.67548275 C242.17818742 43.67596649 240.8658496 43.67645023 239.51374397 43.67694863 C218.24376471 43.68525303 196.97384162 43.71059665 175.7038869 43.74306343 C153.87982749 43.77610518 132.05579666 43.79414292 110.2317121 43.79734105 C97.97284733 43.79950873 85.71406448 43.80829519 73.45522404 43.83380222 C63.01741049 43.85546976 52.57969877 43.86357908 42.14186528 43.85383544 C36.81444664 43.8492794 31.48723825 43.85125263 26.15984821 43.87059689 C21.2842336 43.88814816 16.40898387 43.8872964 11.53336582 43.87169959 C9.7681969 43.86931128 8.00300324 43.87371008 6.23787227 43.88552824 C3.83987036 43.90059104 1.44317075 43.89101466 -0.9547987 43.87530136 C-1.64146405 43.88552357 -2.32812941 43.89574578 -3.03560281 43.90627775 C-9.05646483 43.82006402 -13.17297441 41.652874 -17.60517788 37.63422298 C-23.00137852 31.05237826 -24.52514368 25.93175913 -23.67939663 17.38031673 C-22.00676122 11.89778956 -19.10512287 7.07451798 -14.67939663 3.38031673 C-9.66856218 0.86569899 -5.62976996 -0.05561569 0 0 Z " fill="#000000" transform="translate(43.679396629333496,233.61968326568604)"/>
<path d="M0 0 C8.22029978 8.55324802 7.33756291 19.33427472 7.24583435 30.35820007 C7.24666476 32.17364646 7.24913062 33.98909277 7.25314331 35.80453491 C7.25599084 39.59796451 7.2414074 43.39080033 7.21385193 47.18412781 C7.17984442 52.01217832 7.18577302 56.83916313 7.2045145 61.66726398 C7.21515922 65.41402842 7.2060782 69.16055125 7.19112968 72.90729332 C7.18599707 74.68562792 7.18636888 76.46398828 7.19267464 78.24231911 C7.22687777 93.6863469 5.60279106 106.82375846 -5.3830719 118.68241882 C-15.90637716 128.05391953 -28.09276172 130.78579634 -41.84962463 130.8276825 C-42.89770798 130.83272041 -42.89770798 130.83272041 -43.96696472 130.83786011 C-46.25021702 130.84726931 -48.53339524 130.8493079 -50.81666565 130.85038757 C-52.42034941 130.85360638 -54.02403289 130.85697091 -55.62771606 130.86047363 C-58.9788735 130.86643928 -62.33000524 130.86831611 -65.6811676 130.86772156 C-69.95562436 130.86761991 -74.22991511 130.88128631 -78.50433254 130.89849377 C-81.81336206 130.90965993 -85.12235197 130.91163938 -88.43139839 130.91111183 C-90.0065118 130.91228444 -91.58162648 130.91666542 -93.15672112 130.9244442 C-115.0502224 131.02247772 -115.0502224 131.02247772 -122.65260315 123.66288757 C-127.38044806 118.25201315 -129.04017732 113.25288471 -128.69947815 106.06523132 C-127.84025629 99.59454817 -124.3718586 93.84661268 -119.3830719 89.68241882 C-114.2507245 87.10275701 -110.54108231 86.31231084 -104.70362854 86.34184265 C-103.97108856 86.34140457 -103.23854858 86.34096649 -102.48381042 86.34051514 C-100.08666895 86.34258845 -97.69024591 86.36584916 -95.29322815 86.38945007 C-93.62171816 86.39505124 -91.95020322 86.39931888 -90.27868652 86.40231323 C-85.89740702 86.41372105 -81.5164299 86.44315281 -77.13526917 86.47642517 C-72.6573648 86.50721407 -68.17941117 86.52083735 -63.70143127 86.53593445 C-54.92850667 86.56802679 -46.15582699 86.61917341 -37.3830719 86.68241882 C-37.39306465 85.35936485 -37.39306465 85.35936485 -37.40325928 84.00958252 C-37.46354756 75.66836168 -37.50913604 67.32721477 -37.53850842 58.98582554 C-37.55411706 54.6981528 -37.57526678 50.41066118 -37.60939026 46.12309265 C-37.64215607 41.97985 -37.65996097 37.83678079 -37.66770363 33.6934185 C-37.6732164 32.11828319 -37.68398103 30.5431566 -37.70026207 28.96809578 C-37.80724153 18.18280256 -37.80276324 8.45508959 -29.98854065 0.11991882 C-21.99110902 -7.04079855 -8.17275951 -7.14042487 0 0 Z " fill="#000000" transform="translate(463.38307189941406,340.3175811767578)"/>
<path d="M0 0 C4.76973661 4.3061553 7.29775063 9.14387572 7.91319275 15.4927063 C8.07741871 20.01620591 8.01272477 24.53747948 7.953125 29.0625 C7.94565483 30.73257771 7.93996557 32.40266426 7.93597412 34.07275391 C7.92077872 38.44590912 7.88155052 42.818524 7.8371582 47.19146729 C7.7960731 51.66272678 7.77793497 56.13407448 7.7578125 60.60546875 C7.71504943 69.36222577 7.64687328 78.11854547 7.5625 86.875 C8.48434082 86.86611755 9.40618164 86.85723511 10.35595703 86.8480835 C19.06537105 86.76776358 27.77465975 86.70694729 36.48435974 86.66775131 C40.96157702 86.6469224 45.43848693 86.61869126 49.91552734 86.57324219 C54.24032592 86.52961595 58.56482981 86.50582761 62.88983154 86.49549103 C64.53558996 86.48812964 66.18133319 86.47375466 67.82696533 86.45207977 C85.36515748 86.23037658 85.36515748 86.23037658 92.83984375 92.91015625 C93.66162109 93.91369141 93.66162109 93.91369141 94.5 94.9375 C95.06589844 95.60910156 95.63179687 96.28070313 96.21484375 96.97265625 C99.86701366 102.12803812 99.054496 108.85696192 98.5625 114.875 C97.0925754 120.67979779 93.70714113 124.07889395 89.05078125 127.6484375 C80.44664479 131.88972298 70.73202636 131.16911963 61.390625 131.140625 C59.82037293 131.14197556 58.25012126 131.14391934 56.67987061 131.14642334 C53.39851883 131.14935968 50.11727647 131.14512754 46.8359375 131.13574219 C42.66613601 131.12438641 38.49659318 131.13089198 34.3268013 131.14288712 C31.08536904 131.1501786 27.84399618 131.14778405 24.60256195 131.14263153 C23.06704425 131.14131311 21.53152086 131.14287803 19.99600983 131.14759064 C2.39897302 131.18973538 -11.93700429 129.93169293 -25.17578125 117.31640625 C-36.60406122 104.98018003 -36.90306216 89.727923 -36.8359375 73.82421875 C-36.83796396 72.11318335 -36.84088013 70.40214881 -36.84463501 68.69111633 C-36.84902551 65.13017436 -36.84273004 61.56946016 -36.82861328 58.00854492 C-36.81145775 53.46161539 -36.82142338 48.91521479 -36.83933067 44.36830425 C-36.85020197 40.84483392 -36.84670798 37.32148788 -36.8389473 33.79801369 C-36.83695791 32.12159982 -36.83935981 30.44517436 -36.84638596 28.76877403 C-36.85406347 26.42456731 -36.84231246 24.08120487 -36.82568359 21.73706055 C-36.83175629 21.05688873 -36.83782898 20.37671692 -36.84408569 19.67593384 C-36.74506499 12.08487734 -34.16226622 5.8967219 -29.04296875 0.34765625 C-21.00509132 -7.02528728 -8.28517128 -6.78300004 0 0 Z " fill="#000000" transform="translate(76.4375,340.125)"/>
<path d="M0 0 C1.20660782 -0.01248528 1.20660782 -0.01248528 2.43759155 -0.02522278 C5.07319096 -0.0491422 7.70854215 -0.0580718 10.34423828 -0.06469727 C12.19214953 -0.07367605 14.0400601 -0.0827981 15.88796997 -0.09205627 C19.75280517 -0.10849886 23.61755422 -0.11623796 27.48242188 -0.11914062 C32.41396931 -0.12452508 37.34469798 -0.16222815 42.27601433 -0.20788479 C46.09037172 -0.23774697 49.90453387 -0.24486614 53.71899796 -0.24586678 C55.53614179 -0.25004947 57.35328726 -0.26240464 59.17031479 -0.28338432 C78.17415454 -0.48538596 78.17415454 -0.48538596 85.53955078 5.30639648 C91.21568321 11.357484 91.906937 17.00320583 91.80908203 25.00952148 C91.34979323 30.62748884 89.75703645 34.27184223 85.59814453 38.08764648 C80.14011726 42.3495315 76.11728645 43.45534126 69.22241211 43.41992188 C68.10984795 43.42014091 68.10984795 43.42014091 66.97480774 43.42036438 C64.52370273 43.41966783 62.07267376 43.41188746 59.62158203 43.40405273 C57.92193137 43.40218764 56.22228017 43.40076417 54.52262878 43.39976501 C50.04935217 43.39594703 45.57610803 43.38612286 41.10284424 43.37506104 C36.5381311 43.36483148 31.97341271 43.36026408 27.40869141 43.35522461 C18.45229693 43.34449997 9.49592656 43.32743215 0.53955078 43.30639648 C0.55620537 44.68249588 0.55620537 44.68249588 0.57319641 46.08639526 C0.67371297 54.76572336 0.74967487 63.44485373 0.79861164 72.12463188 C0.82461722 76.58619047 0.85984789 81.0472649 0.91674805 85.50854492 C0.97139329 89.82040232 1.00103917 94.13179638 1.013937 98.44397354 C1.02311897 100.08252371 1.04104852 101.7210508 1.06820107 103.3594017 C1.21414479 112.53711714 1.16553199 120.54843329 -4.46044922 128.30639648 C-6.77685547 130.56030273 -6.77685547 130.56030273 -9.02294922 131.86889648 C-9.76673828 132.32393555 -10.51052734 132.77897461 -11.27685547 133.24780273 C-17.15241055 136.0962382 -23.507126 136.17357647 -29.64794922 134.11889648 C-33.41062182 132.55480513 -35.80119488 130.42152299 -38.46044922 127.30639648 C-39.01732422 126.68764648 -39.57419922 126.06889648 -40.14794922 125.43139648 C-43.35999174 120.23094668 -43.75667804 114.50916126 -43.73510742 108.54199219 C-43.74021835 107.79946701 -43.74532928 107.05694183 -43.75059509 106.29191589 C-43.7644092 103.85525274 -43.76353981 101.41887523 -43.76123047 98.98217773 C-43.76512334 97.27214963 -43.76945922 95.56212248 -43.7742157 93.85209656 C-43.78166144 90.27213404 -43.78139966 86.69227015 -43.77612305 83.11230469 C-43.77034625 78.55441083 -43.78722396 73.99692571 -43.81046772 69.43909931 C-43.82530033 65.90689281 -43.82606363 62.37478242 -43.82295799 58.84255028 C-43.82346695 57.16385276 -43.82862352 55.48514925 -43.83876991 53.80648232 C-43.92362387 37.79858889 -42.15976332 23.66405237 -30.86669922 11.48608398 C-21.90259535 3.36600288 -11.8648388 0.01064285 0 0 Z " fill="#000000" transform="translate(83.46044921875,40.693603515625)"/>
<path d="M0 0 C1.21817162 -0.01007584 1.21817162 -0.01007584 2.46095276 -0.02035522 C5.14053508 -0.03931979 7.81986649 -0.0432593 10.49951172 -0.04541016 C12.37173565 -0.05184152 14.24395858 -0.05857013 16.11618042 -0.06558228 C20.04183275 -0.07755289 23.96739712 -0.08126356 27.89306641 -0.08007812 C32.89959414 -0.07987549 37.90555068 -0.10712077 42.91194344 -0.14162254 C46.78124529 -0.1639745 50.6504118 -0.16791306 54.51977158 -0.16685867 C56.36398146 -0.16920435 58.20819568 -0.177969 60.05234146 -0.19352341 C75.23493506 -0.30954142 87.38656281 1.57112437 98.96435547 12.29052734 C107.56343349 21.29143144 110.93686913 31.06819493 110.98120117 43.33447266 C110.98777237 44.13029251 110.99434357 44.92611237 111.00111389 45.74604797 C111.02076551 48.37025053 111.03249121 50.99439607 111.04248047 53.61865234 C111.046556 54.5185363 111.05063152 55.41842026 111.05483055 56.34557343 C111.07565649 61.10863512 111.08997329 65.87166831 111.09936523 70.63476562 C111.11042323 75.53832783 111.1448261 80.44143548 111.18453693 85.34483719 C111.2107564 89.12997242 111.21906178 92.91500015 111.22264671 96.7002182 C111.22749876 98.50701722 111.23907309 100.31381188 111.25768471 102.12052155 C111.44988198 122.01400159 111.44988198 122.01400159 105.46284485 128.81402588 C100.86628183 133.03676326 95.57843013 135.42004657 89.36669922 135.66552734 C82.07945054 135.33204308 77.5153906 133.41832644 72.42919922 128.10302734 C67.15214369 122.26883249 66.55043291 115.36015857 66.57714844 107.77294922 C66.57685638 107.06952393 66.57656433 106.36609863 66.57626343 105.64135742 C66.5776419 103.34719929 66.59313195 101.05337779 66.60888672 98.75927734 C66.61262214 97.15645525 66.61546661 95.55363086 66.61746216 93.95080566 C66.62505697 89.75538706 66.64466925 85.56010943 66.66687012 81.36474609 C66.68741853 77.0744009 66.69648302 72.78403268 66.70654297 68.49365234 C66.72791952 60.09254637 66.76200464 51.69155445 66.80419922 43.29052734 C65.86983032 43.3016304 64.93546143 43.31273346 63.97277832 43.32417297 C55.14569276 43.4257517 46.31872656 43.50058954 37.49118805 43.5495882 C32.95334925 43.57562647 28.41598417 43.61091803 23.87841797 43.66772461 C19.49524818 43.72225174 15.1125326 43.75199125 10.72904968 43.76491356 C9.06093704 43.77411648 7.39284786 43.79208782 5.72492981 43.81917763 C-11.19501055 44.0829317 -11.19501055 44.0829317 -17.19580078 38.29052734 C-22.02223269 33.52648584 -24.26055856 29.2393256 -24.50830078 22.47802734 C-24.3403159 16.51898462 -23.49201695 11.81040093 -19.39111328 7.31005859 C-13.22798949 1.6702189 -8.36831258 -0.00998585 0 0 Z " fill="#000000" transform="translate(359.19580078125,40.70947265625)"/>
</svg>
